<?xml version="1.0" encoding="UTF-8" standalone="no"?>
<!-- Created with Inkscape (http://www.inkscape.org/) -->

<svg
   version="1.1"
   id="svg1"
   width="1024"
   height="1024"
   viewBox="0 0 1024 1024"
   sodipodi:docname="vespucc.logo.incscape.svg"
   inkscape:export-filename="vespucc.logo.white.32x32.png"
   inkscape:export-xdpi="3"
   inkscape:export-ydpi="3"
   inkscape:version="1.4.2 (f4327f4, 2025-05-13)"
   xmlns:inkscape="http://www.inkscape.org/namespaces/inkscape"
   xmlns:sodipodi="http://sodipodi.sourceforge.net/DTD/sodipodi-0.dtd"
   xmlns="http://www.w3.org/2000/svg"
   xmlns:svg="http://www.w3.org/2000/svg">
  <defs
     id="defs1" />
  <sodipodi:namedview
     id="namedview1"
     pagecolor="#ffffff"
     bordercolor="#000000"
     borderopacity="0.25"
     inkscape:showpageshadow="2"
     inkscape:pageopacity="0.0"
     inkscape:pagecheckerboard="0"
     inkscape:deskcolor="#d1d1d1"
     inkscape:export-bgcolor="#5c5c5c00"
     inkscape:zoom="1.1005859"
     inkscape:cx="511.09139"
     inkscape:cy="439.31145"
     inkscape:window-width="2560"
     inkscape:window-height="1329"
     inkscape:window-x="-8"
     inkscape:window-y="32"
     inkscape:window-maximized="1"
     inkscape:current-layer="svg1">
    <inkscape:page
       x="0"
       y="0"
       width="1024"
       height="1024"
       id="page2"
       margin="0"
       bleed="0" />
  </sodipodi:namedview>
  <path
     style="fill:#ffffff;fill-opacity:1;stroke-width:1.48827"
     d="m 512.98391,1023.8808 c -0.44454,-1.3028 -7.45358,-54.06887 -12.83401,-96.61788 -5.66164,-44.77312 -17.95173,-148.52063 -19.57095,-165.2092 -1.06557,-10.98231 -12.21509,-107.64106 -17.0847,-148.1126 -2.91248,-24.20565 -2.91248,-24.20565 -15.42536,-36.40981 -12.51284,-12.20414 -12.51284,-12.20414 -27.52858,-13.83623 -8.25868,-0.89766 -24.4757,-2.93378 -36.03783,-4.52476 -11.56213,-1.59099 -61.56459,-7.83433 -111.11659,-13.87416 -49.55198,-6.03979 -126.58282,-15.3218 -171.1796,-20.62662 -44.596802,-5.30485 -86.152643,-10.09836 -92.3463263,-10.65223 -6.1936592,-0.55388 -10.58575755,-1.20777 -9.76023865,-1.45313 0.8255429,-0.24532 26.50223795,-3.43523 57.05929695,-7.08867 30.557048,-3.65343 91.033008,-10.98614 134.391008,-16.29496 43.358,-5.3088 87.27908,-10.64174 97.60242,-11.85102 10.32332,-1.20927 39.04094,-4.51687 63.81696,-7.3502 24.77598,-2.83332 52.95386,-6.06965 62.6175,-7.19181 17.57024,-2.04034 17.57024,-2.04034 31.17868,-14.38367 7.48464,-6.78881 13.90051,-13.67093 14.25744,-15.29351 0.35697,-1.62257 3.04461,-23.52756 5.9725,-48.67771 2.92793,-25.15014 9.35854,-81.24017 14.29027,-124.64446 4.93173,-43.40428 10.36013,-90.20129 12.06315,-103.9933 1.70302,-13.79202 6.108,-48.97275 9.78886,-78.179357 3.68086,-29.206627 7.09892,-58.081355 7.59569,-64.166095 0.49676,-6.0847044 1.27949,-12.058784 1.73938,-13.27573928 0.45992,-1.21693122 1.71069,4.09336438 2.77953,11.80067628 1.06883,7.707287 3.6483,26.293334 5.73215,41.302281 2.08385,15.008982 4.80515,35.586381 6.04733,45.727555 3.1674,25.858779 18.93188,165.602399 27.12388,240.438409 3.7744,34.48008 7.73749,70.21004 8.80689,79.39996 1.94433,16.70895 1.94433,16.70895 15.20761,29.10884 9.03477,8.44663 14.74509,12.64959 17.9112,13.18315 2.55633,0.43077 30.32484,3.78496 61.70778,7.45377 31.3829,3.66878 107.73803,12.91133 169.67803,20.53895 61.94,7.62762 127.82916,15.56862 146.4204,17.64666 18.59119,2.07804 37.30222,3.77826 41.58012,3.77826 4.2778,0 8.1129,0.53261 8.5225,1.18364 0.4096,0.651 -12.2201,2.70858 -28.06587,4.57236 -15.84585,1.86378 -52.79831,6.33535 -82.11658,9.93684 -51.75195,6.35729 -180.94549,21.82747 -269.53066,32.27478 -23.94893,2.82443 -45.57163,5.13448 -48.0504,5.13345 -3.70596,-0.001 -6.82443,2.35121 -17.54812,13.23935 -11.26689,11.43968 -13.15851,14.0991 -13.90338,19.54669 -0.47422,3.46802 -3.52644,28.54239 -6.78273,55.72078 -3.25632,27.17838 -6.96212,59.04017 -8.23515,70.80396 -1.27305,11.76378 -3.66746,34.33251 -5.32092,50.15278 -1.65346,15.82027 -3.68766,34.07441 -4.52044,40.56476 -0.83277,6.49036 -3.89752,31.38237 -6.81054,55.3156 -8.34892,68.59425 -18.72752,150.98352 -19.32489,153.40862 -0.29979,1.2169 -0.65832,1.8806 -0.79671,1.475 z m 22.43464,-469.19923 c 5.02619,-2.63165 11.1491,-7.2786 13.60646,-10.32657 2.4574,-3.04796 5.9675,-8.74748 7.80024,-12.66565 2.61388,-5.58816 3.33108,-9.82684 3.32692,-19.6621 -0.006,-10.69559 -0.61599,-13.76546 -4.16074,-20.88918 -2.2855,-4.59303 -6.91215,-10.79757 -10.2815,-13.78786 -3.36931,-2.99027 -9.59888,-7.02533 -13.84348,-8.9668 -5.83375,-2.66838 -10.30934,-3.53349 -18.33637,-3.54439 -5.84041,-0.006 -13.77609,1.04235 -17.63482,2.33397 -3.85873,1.29161 -10.43571,5.36884 -14.61551,9.06053 -4.17982,3.6917 -9.35704,10.10254 -11.50499,14.24633 -2.73147,5.26951 -4.11497,10.67296 -4.60271,17.97678 -0.4696,7.03245 0.0846,13.08464 1.69673,18.53265 1.31673,4.44949 4.39269,10.8003 6.83546,14.11297 2.44277,3.31263 6.90828,7.87138 9.92339,10.13054 3.0151,2.25916 8.97372,5.33662 13.24143,6.83881 5.80425,2.04305 10.48736,2.56291 18.58523,2.06305 8.48958,-0.52405 12.79788,-1.70083 19.96426,-5.45308 z m -58.56916,447.54903 c -2.89054,-0.2898 -15.0533,-1.8738 -27.02837,-3.52003 -11.97507,-1.6462 -31.19431,-5.01542 -42.70945,-7.4871 -11.51516,-2.47167 -30.15216,-7.40901 -41.41554,-10.97186 -11.26344,-3.56285 -28.66882,-9.78499 -38.67862,-13.827 -10.00981,-4.04201 -25.00205,-10.70247 -33.31608,-14.80105 -8.31404,-4.09855 -22.70544,-11.85264 -31.9809,-17.2313 -9.27546,-5.37865 -22.27014,-13.49288 -28.87706,-18.0316 -6.60696,-4.53873 -18.43186,-13.27646 -26.2776,-19.41717 -7.84572,-6.14069 -20.6842,-17.05383 -28.52994,-24.25138 -7.8457,-7.19756 -20.22718,-19.43667 -27.51434,-27.19799 -7.28716,-7.76136 -19.89602,-22.74716 -28.0197,-33.30179 -8.12368,-10.55463 -19.93294,-27.34632 -26.242825,-37.31487 -6.30986,-9.96853 -16.478359,-27.88444 -22.596679,-39.81305 -6.118283,-11.92862 -14.101422,-29.32197 -17.740258,-38.65188 -3.63886,-9.32989 -8.689159,-23.6013 -11.22288,-31.71428 -2.533685,-8.11292 -6.040305,-20.31335 -7.792463,-27.11205 -1.752158,-6.79867 -4.78174,-20.07442 -6.732396,-29.50162 -1.950644,-9.42723 -4.57662,-26.10155 -5.835485,-37.05403 -1.258841,-10.95251 -2.614639,-25.05797 -3.012835,-31.34549 -0.518582,-8.1889 -0.224243,-11.41086 1.037214,-11.35764 0.968639,0.041 9.53182,1.21092 19.029283,2.60017 9.497462,1.38924 18.112757,3.05446 19.145099,3.7005 1.172285,0.73361 1.87696,4.61968 1.87696,10.35086 0,5.04692 1.031383,17.36017 2.291963,27.36274 1.260617,10.0026 3.957817,25.91366 5.993818,35.35796 2.036001,9.44426 5.731857,24.13043 8.213021,32.63589 2.481139,8.50547 7.266562,22.77689 10.634236,31.71427 3.367662,8.93738 12.074887,28.19793 19.349407,42.80126 7.2951,14.64473 18.90574,34.88866 25.89122,45.14305 6.96566,10.22534 19.3626,26.82003 27.5487,36.87705 8.1861,10.057 23.34988,26.58284 33.6973,36.72404 10.34744,10.14117 25.75732,23.91511 34.24422,30.6087 8.48688,6.69356 22.33368,16.70969 30.77068,22.25802 8.43698,5.54831 22.43492,14.06407 31.1065,18.92389 8.67159,4.85982 21.16204,11.35133 27.75655,14.4256 6.59451,3.07426 20.43179,8.84569 30.74956,12.82547 10.31771,3.97976 26.54489,9.48605 36.06037,12.23617 9.51549,2.75016 23.72014,6.38937 31.56588,8.08714 7.84571,1.69778 21.02206,4.0307 29.2807,5.18425 8.25868,1.15358 21.18294,2.54064 28.72064,3.08239 13.70486,0.98498 13.70486,0.98498 17.64459,20.38761 2.16686,10.67142 3.93929,19.90045 3.93865,20.50885 -6e-4,0.6086 -3.54856,1.0002 -7.88435,0.8702 -4.33583,-0.1298 -10.24827,-0.4731 -13.13879,-0.7629 z M 532.391,983.08651 c 4.04155,-20.42162 4.04155,-20.42162 15.16789,-21.61649 6.11949,-0.65717 20.58628,-2.47199 32.14841,-4.033 11.56213,-1.56094 30.48199,-5.14052 42.04412,-7.95452 11.56212,-2.81404 27.77915,-7.37888 36.03783,-10.14412 8.25865,-2.76524 20.96102,-7.4533 28.2275,-10.41794 7.26647,-2.96466 20.10495,-8.78719 28.52993,-12.93896 8.425,-4.15177 21.9838,-11.50274 30.13063,-16.3354 8.14685,-4.8327 20.64749,-12.83319 27.77915,-17.77892 7.13169,-4.94571 18.0345,-13.01306 24.22852,-17.92741 6.19399,-4.91437 19.92061,-17.20886 30.50361,-27.32111 10.58299,-10.11225 24.77289,-24.95294 31.53307,-32.97927 6.76022,-8.02635 16.73822,-20.66661 22.17336,-28.08953 5.43515,-7.42288 13.96074,-20.134 18.94577,-28.24696 4.98503,-8.11294 12.5296,-21.53795 16.76565,-29.83336 4.23608,-8.29538 11.00742,-23.23059 15.0474,-33.18934 4.03996,-9.95875 10.06738,-26.48155 13.39422,-36.71731 3.32682,-10.23578 7.41676,-24.8391 9.08872,-32.45182 1.67198,-7.61272 4.06004,-20.14731 5.30683,-27.85459 1.24679,-7.70731 3.01399,-22.64252 3.92715,-33.18938 0.91317,-10.54683 2.12893,-19.59102 2.70166,-20.09821 0.57276,-0.50717 7.12276,-1.67327 14.55556,-2.59131 7.4328,-0.91806 16.15098,-2.09986 19.37352,-2.62623 5.8595,-0.95702 5.8595,-0.95702 4.7982,15.86705 -0.5837,9.25327 -2.0506,24.45768 -3.2597,33.78758 -1.2093,9.32989 -3.92283,25.59266 -6.03042,36.13953 -2.10746,10.54682 -6.44691,28.22726 -9.64324,39.28982 -3.1963,11.06259 -8.29934,26.66158 -11.34007,34.66443 -3.04077,8.00289 -8.86759,21.85233 -12.94857,30.77657 -4.08096,8.92426 -10.52492,21.86808 -14.31992,28.7641 -3.79498,6.89601 -12.00992,20.50366 -18.25539,30.23921 -6.24543,9.73552 -17.22833,25.33454 -24.40645,34.66444 -7.17806,9.32989 -19.36002,23.6767 -27.07094,31.88184 -7.71096,8.20512 -20.43914,20.83473 -28.28488,28.06576 -7.84574,7.23107 -20.6842,18.18562 -28.52994,24.34344 -7.84574,6.15784 -22.37347,16.496 -32.28388,22.97372 -9.9104,6.47769 -23.48742,14.86149 -30.17113,18.63067 -6.68373,3.76912 -21.88718,11.43241 -33.78547,17.02947 -11.89826,5.59706 -30.22488,13.22806 -40.72582,16.95781 -10.50095,3.72973 -26.3801,8.79356 -35.28703,11.25293 -8.90693,2.45935 -25.7779,6.43136 -37.49106,8.82664 -11.71317,2.39532 -28.94374,5.31098 -38.29017,6.47926 -9.34643,1.1684 -23.14335,2.5739 -30.65983,3.1234 -13.66633,0.9991 -13.66633,0.9991 -9.62479,-19.42249 z m -77.45663,-44.08564 c -7.511,-1.07706 -22.3766,-3.92709 -33.03466,-6.33335 -10.65807,-2.40626 -28.09122,-7.16215 -38.74034,-10.56864 -10.6491,-3.40647 -27.06031,-9.43168 -36.46934,-13.38935 -9.40899,-3.95766 -24.37011,-10.84522 -33.24691,-15.30568 -8.87683,-4.46047 -23.88609,-13.18702 -33.35395,-19.39229 -9.46786,-6.20528 -22.61996,-15.43251 -29.22692,-20.50494 -6.60692,-5.07242 -17.75612,-14.2642 -24.77598,-20.42618 -7.01986,-6.16195 -19.41002,-18.35778 -27.53364,-27.10187 -8.12366,-8.74407 -20.65478,-23.53186 -27.84694,-32.86175 -7.1922,-9.32991 -17.41846,-23.60132 -22.72502,-31.71426 -5.3066,-8.11296 -14.23316,-23.71195 -19.83676,-34.66443 -5.60364,-10.95251 -12.85518,-26.66718 -16.11458,-34.92154 -3.25938,-8.25436 -8.2668,-22.59275 -11.12758,-31.86306 -2.860803,-9.27035 -6.948784,-24.50859 -9.084442,-33.86279 -2.135658,-9.35419 -4.951398,-26.10308 -6.257182,-37.21977 -1.30582,-11.11667 -2.054764,-20.52591 -1.664378,-20.90941 0.390398,-0.38351 16.494882,1.39955 35.787742,3.96237 19.29288,2.56282 35.83352,4.86881 36.75704,5.12438 0.9235,0.25564 2.83482,7.98674 4.24736,17.18028 1.41256,9.19357 3.86656,21.80455 5.4534,28.02444 1.5868,6.21988 2.88512,11.6492 2.88512,12.06516 0,0.41592 -9.62886,7.208 -21.39746,15.09349 -11.7686,7.8855 -23.08672,15.65341 -25.15138,17.26203 -3.75396,2.92474 -3.75396,2.92474 6.00628,1.89014 5.36814,-0.56903 17.86766,-2.6478 27.77672,-4.61953 9.90906,-1.97169 19.03456,-3.58491 20.27892,-3.58491 1.39072,0 3.64766,3.55216 5.85762,9.21926 1.9774,5.07059 7.63586,17.18473 12.5744,26.92025 4.9385,9.73554 12.4386,23.0113 16.6669,29.50165 4.22824,6.49036 12.99952,18.35789 19.49166,26.37232 6.49216,8.01442 19.66916,22.52925 29.28224,32.25517 9.61308,9.72588 23.5597,22.48837 30.9925,28.36102 7.43278,5.87267 19.83598,14.75477 27.56262,19.73798 7.72662,4.98326 20.05164,12.215 27.38896,16.07059 8.75878,4.60257 13.34558,7.87529 13.3553,9.52915 0.01,1.38542 -1.61806,12.00601 -3.61376,23.60132 -1.99572,11.59529 -3.95857,23.90344 -4.36186,27.35143 -0.40331,3.44802 -0.54152,6.26909 -0.30716,6.26909 0.23444,0 4.09698,-5.47622 8.5836,-12.1694 4.48664,-6.69322 10.08724,-15.48838 12.4458,-19.54485 2.35852,-4.05649 5.83424,-9.80449 7.72378,-12.77338 3.43557,-5.39797 3.43557,-5.39797 19.98525,0.32868 9.10231,3.14962 21.80201,7.01265 28.22153,8.5845 6.41956,1.57183 16.73972,3.68975 22.93374,4.70647 6.19398,1.01675 11.45321,1.98347 11.68717,2.14831 0.23384,0.16492 2.43003,15.1354 4.88013,33.26803 2.45012,18.13262 4.45476,34.8158 4.45476,37.07381 0,2.38545 -0.78637,4.03901 -1.877,3.94689 -1.03231,-0.0872 -8.02232,-1.03973 -15.5333,-2.11683 z m 98.49785,-0.30604 c 10e-4,-1.41979 1.98501,-18.08239 4.40807,-37.02796 2.42307,-18.94565 4.61802,-34.62126 4.87765,-34.83473 0.25962,-0.21351 9.59412,-2.16553 20.74331,-4.33787 11.14919,-2.1723 28.04192,-6.51538 37.53939,-9.65129 9.49746,-3.13589 18.3477,-6.12658 19.66716,-6.64597 1.83397,-0.72192 4.28615,2.28628 10.411,12.77176 4.40658,7.54387 11.64248,19.02639 16.07975,25.51678 7.2922,10.66628 7.98988,11.30435 7.25751,6.63784 -0.44561,-2.83951 -2.53381,-16.3692 -4.64041,-30.06592 -2.10661,-13.69674 -3.6382,-25.06926 -3.40358,-25.27225 0.23474,-0.20292 5.43823,-2.83427 11.56353,-5.84727 6.12531,-3.01301 17.03844,-9.06429 24.2514,-13.44733 7.21294,-4.38302 19.28891,-12.65691 26.83552,-18.38637 7.54657,-5.72947 20.55522,-16.84852 28.90812,-24.70896 8.35291,-7.86048 21.18797,-21.49744 28.52235,-30.30441 7.33441,-8.80698 18.2738,-23.41029 24.30977,-32.45181 6.03599,-9.04155 14.53154,-22.95764 18.87906,-30.92465 4.34748,-7.96703 10.14244,-19.91518 12.87769,-26.5515 4.60549,-11.174 5.28746,-12.05973 9.22543,-11.98159 2.33874,0.0466 14.22683,1.91696 26.41796,4.15683 12.19113,2.23984 23.50572,3.86134 25.1435,3.60331 2.10234,-0.3312 -4.33028,-5.44344 -21.87906,-17.38817 -21.07326,-14.34369 -24.7206,-17.3749 -23.96146,-19.91362 0.49247,-1.647 2.50254,-10.62808 4.4668,-19.95797 1.96426,-9.3299 4.0148,-20.77956 4.55672,-25.44369 0.82806,-7.12645 1.50746,-8.58741 4.25602,-9.15184 1.79889,-0.36939 17.83532,-2.69331 35.63652,-5.16428 17.8012,-2.47096 33.39034,-4.49266 34.64246,-4.49266 2.01512,0 2.05474,2.01242 0.34507,17.5176 -1.06235,9.63469 -3.01595,22.74449 -4.34134,29.13288 -1.32537,6.3884 -4.38981,19.37803 -6.80991,28.86584 -2.42008,9.48782 -7.75797,26.62766 -11.86202,38.08855 -4.10402,11.46087 -10.51794,27.17558 -14.25316,34.92159 -3.73521,7.74598 -10.29153,20.14466 -14.56955,27.55261 -4.27805,7.40795 -13.22983,21.43446 -19.89285,31.16997 -6.66305,9.73556 -18.63014,25.33454 -26.59358,34.66444 -7.96344,9.32989 -22.4973,24.61612 -32.2975,33.96937 -9.8002,9.35322 -23.56204,21.52499 -30.58191,27.04833 -7.01986,5.52334 -21.48668,15.74146 -32.14846,22.70691 -10.66178,6.96547 -26.2031,16.1585 -34.53625,20.42899 -8.33312,4.27048 -23.01273,11.06774 -32.62133,15.10507 -9.6086,4.03729 -25.14992,9.77973 -34.53625,12.76096 -9.38633,2.98119 -26.70585,7.70353 -38.48782,10.49407 -11.78197,2.79056 -28.33686,6.03944 -36.78861,7.21973 -8.45175,1.1803 -15.87361,2.15817 -16.49302,2.17305 -0.6194,0.0147 -1.12504,-1.13462 -1.12369,-2.55437 z M 393.43699,795.98059 c 0.94262,-3.77934 7.30287,-32.1684 18.67184,-83.34214 4.95664,-22.31062 9.55716,-43.39734 10.22333,-46.85941 1.08802,-5.65399 2.73959,-7.55135 16.22704,-18.64182 8.25868,-6.79094 15.26209,-12.12435 15.56317,-11.85199 0.30108,0.27242 1.80372,9.65684 3.33918,20.85445 1.53546,11.19759 2.80948,22.56282 2.83115,25.25607 0.03,3.6014 -4.48341,12.57674 -17.05675,33.92691 -18.90877,32.10812 -46.47632,77.9505 -48.94757,81.3955 -1.29755,1.80881 -1.45293,1.6742 -0.85139,-0.73757 z m 232.12714,-9.32984 c -3.67028,-6.22671 -10.47993,-17.62727 -15.13258,-25.3346 -4.65262,-7.70728 -16.79578,-27.86389 -26.98472,-44.79246 -18.52542,-30.77923 -18.52542,-30.77923 -15.9229,-53.84053 1.43141,-12.6837 2.95071,-24.23879 3.37621,-25.67793 0.65005,-2.19864 2.25497,-1.40373 10.04591,4.97559 5.09977,4.17574 11.92252,9.93532 15.16169,12.79903 5.48953,4.85326 6.18328,6.41838 10.2179,23.05097 4.89944,20.198 20.77128,90.06174 24.44705,107.60971 1.33481,6.37242 2.21042,11.7989 1.94579,12.05886 -0.26472,0.26005 -3.48411,-4.62193 -7.15435,-10.84864 z m -358.75521,-29.5531 c 0.32869,-0.96871 13.09219,-18.77647 28.36331,-39.5728 15.2711,-20.79631 39.65598,-53.46994 54.18856,-72.60807 14.5326,-19.1381 33.19914,-43.14229 41.48116,-53.34263 15.05832,-18.54605 15.05832,-18.54605 26.80174,-17.31004 11.74344,1.23601 11.74344,1.23601 22.04343,11.90821 9.17543,9.50695 10.45393,11.55795 11.70983,18.7851 0.7754,4.46215 1.41376,9.57386 1.41852,11.35942 0.006,2.33515 -4.10094,6.50156 -14.63164,14.8425 -8.05222,6.37785 -25.45172,19.88073 -38.66558,30.00641 -13.21388,10.12565 -37.87726,28.73491 -54.80752,41.35387 -16.93028,12.61901 -39.22866,28.87589 -49.552,36.12645 -10.3233,7.2506 -21.05968,14.7646 -23.85857,16.69786 -2.79889,1.93325 -4.81997,2.72243 -4.49124,1.75372 z m 484.07799,-3.34102 c -3.30345,-2.34121 -23.91259,-17.37945 -45.79804,-33.4183 C 683.2034,704.2995 656.5129,684.58335 645.77662,676.52465 635.04037,668.46596 614.2901,652.69269 599.6649,641.47288 573.07369,621.07327 573.07369,621.07327 573.98441,611.1715 c 0.50087,-5.44598 1.31775,-11.00007 1.81523,-12.34243 0.49748,-1.34236 5.38919,-7.06387 10.87047,-12.71451 8.96917,-9.24622 10.69632,-10.37241 17.26811,-11.25971 4.01621,-0.54223 9.08036,-1.32813 11.25373,-1.74641 3.60174,-0.69318 5.67378,1.36836 23.40687,23.28842 10.70046,13.22693 27.56453,34.66953 37.47571,47.65024 9.91119,12.98075 31.01329,41.396 46.89362,63.14504 15.88029,21.74904 30.26259,41.85695 31.9607,44.68424 1.6981,2.82726 2.83475,5.36472 2.52593,5.63873 -0.30885,0.27419 -3.26439,-1.41727 -6.56787,-3.75848 z m 36.03781,-126.93395 c -9.99423,-2.67315 -41.1763,-9.432 -97.6024,-21.15567 -14.03973,-2.91706 -27.00523,-5.65923 -28.81222,-6.09378 -1.80701,-0.43451 -8.56411,-6.74215 -15.01577,-14.01699 -6.45166,-7.27484 -11.6065,-13.68511 -11.45519,-14.24509 0.1514,-0.55999 12.19754,-2.37365 26.76938,-4.03034 26.49426,-3.01224 26.49426,-3.01224 35.33154,1.79941 4.8605,2.64639 14.43699,8.26531 21.28106,12.48649 6.84406,4.22119 27.30934,16.23805 45.4784,26.70415 18.16908,10.46606 33.67658,19.64432 34.46117,20.39611 0.78457,0.75179 1.12241,1.27691 0.75078,1.16701 -0.37163,-0.10982 -5.40567,-1.46502 -11.18675,-3.0113 z m -557.83531,0.92325 c 0,-0.44703 2.19606,-1.73548 4.88014,-2.86322 2.68406,-1.12773 27.09786,-15.22158 54.25288,-31.31968 49.37276,-29.26922 49.37276,-29.26922 70.57408,-26.74483 11.66066,1.38838 24.09414,2.94794 27.6299,3.46566 6.42864,0.94126 6.42864,0.94126 -3.64272,13.0134 -5.53926,6.63967 -10.85536,12.93539 -11.81356,13.99043 -0.95824,1.05506 -6.07612,2.91228 -11.37306,4.12712 -9.52072,2.18359 -56.24016,12.02619 -104.42858,22.00047 -13.66724,2.8289 -25.12618,5.14348 -25.46428,5.14348 -0.33814,0 -0.6148,-0.36577 -0.6148,-0.81283 z M 21.03085,484.36946 c 2.496375,-28.16471 5.852496,-52.94251 9.986137,-73.72643 2.457638,-12.35701 6.510037,-29.28357 9.00532,-37.61459 2.49526,-8.33102 6.288721,-20.12569 8.429898,-26.2104 2.141164,-6.08473 6.434397,-17.36911 9.540482,-25.0764 3.106121,-7.70731 8.181481,-19.32359 11.278557,-25.81394 3.097063,-6.49038 9.333803,-18.43853 13.859401,-26.55149 4.525598,-8.11294 14.496703,-24.04384 22.158045,-35.40197 7.66134,-11.35813 17.72986,-25.29766 22.37452,-30.97675 4.64468,-5.67904 15.25346,-17.7897 23.5751,-26.91253 8.32164,-9.12283 22.73502,-23.25114 32.02978,-31.39624 9.29474,-8.14509 20.87302,-17.84993 25.7295,-21.56625 4.85651,-3.71634 14.23568,-10.53018 20.8426,-15.14191 6.60696,-4.6117 19.10756,-12.747667 27.77916,-18.079901 8.67162,-5.33227 24.55077,-14.000499 35.28702,-19.26274 10.73628,-5.262228 27.96686,-12.928321 38.2902,-17.035708 10.32331,-4.107387 26.54034,-9.776369 36.0378,-12.597645 9.49746,-2.821337 26.43742,-7.148847 37.64438,-9.616719 11.20693,-2.467871 28.2706,-5.559506 37.91923,-6.870261 9.64865,-1.310792 25.98737,-2.847442 36.30822,-3.414828 10.32088,-0.567397 18.76523,-0.468472 18.76523,0.219693 0,0.68832 -1.28703,7.661722 -2.86006,15.496471 -1.57302,7.834725 -3.28432,16.689142 -3.80284,19.676403 -0.9229,5.31681 -1.10814,5.447445 -8.77715,6.190431 -4.3089,0.417435 -15.60502,1.495768 -25.10249,2.396309 -9.49746,0.900541 -25.03875,3.249789 -34.53622,5.220532 -9.49746,1.970802 -23.34952,5.310032 -30.78232,7.420559 -7.43278,2.110538 -23.6498,7.49727 -36.0378,11.970516 -12.388,4.473258 -32.65926,12.979298 -45.04726,18.902348 -12.388,5.92304 -29.58654,15.19728 -38.21897,20.60942 -8.63241,5.41211 -23.16017,15.37357 -32.28389,22.13653 -9.12368,6.76298 -22.33206,17.51625 -29.35194,23.89614 -7.01986,6.37988 -19.01118,18.05464 -26.64738,25.94384 -7.63622,7.88924 -19.36686,21.15002 -26.0681,29.46844 -6.70122,8.31841 -16.56534,21.64422 -21.92022,29.61295 -5.35486,7.96868 -14.3994,22.8939 -20.0989,33.16712 -5.6995,10.27324 -13.41652,25.52857 -17.148944,33.90073 -3.732398,8.37213 -9.51998,22.98547 -12.861321,32.47398 -3.34134,9.48858 -7.705019,23.55791 -9.697099,31.26522 -1.992057,7.70729 -5.014141,20.65115 -6.715721,28.76409 -1.70158,8.11296 -4.0783,23.38004 -5.28156,33.9269 -1.203296,10.54683 -2.194322,22.94012 -2.202276,27.5406 -0.015,7.93612 -0.226042,8.40694 -4.143766,9.19312 -5.019659,1.00727 -34.877753,5.30613 -36.854118,5.30613 -0.849201,0 -1.008997,-4.56389 -0.400235,-11.43189 z m 960.72331,8.77676 c -15.40452,-2.03901 -16.89408,-2.50787 -16.90824,-5.32199 -0.008,-1.6973 -0.70146,-11.05143 -1.5399,-20.78699 -0.83843,-9.73554 -2.88802,-25.66644 -4.55464,-35.40199 -1.66659,-9.73552 -5.44075,-26.99399 -8.38702,-38.35212 -2.94624,-11.35813 -8.37144,-28.94851 -12.05601,-39.08969 -3.68455,-10.1412 -12.36427,-29.72291 -19.28825,-43.51493 -6.924,-13.79201 -17.06551,-32.04615 -22.53669,-40.56478 -5.47118,-8.51859 -13.7781,-20.72719 -18.45983,-27.13019 -4.6817,-6.40301 -14.65206,-18.68307 -22.15633,-27.28903 -7.50431,-8.60595 -21.02973,-22.63103 -30.05658,-31.16688 -9.02682,-8.53585 -21.21969,-19.28768 -27.0952,-23.89294 -5.87555,-4.60527 -16.67559,-12.60188 -24.00014,-17.7702 -7.32458,-5.16831 -20.07447,-13.46259 -28.33315,-18.43169 -8.25864,-4.96912 -25.48922,-13.99013 -38.29016,-20.04674 C 695.29107,98.32945 675.69769,90.286576 664.55114,86.513015 653.40456,82.739442 635.4635,77.411651 624.6821,74.673457 c -10.7814,-2.738182 -25.64914,-6.007251 -33.03946,-7.264621 -7.39029,-1.257359 -22.82338,-2.943266 -34.29575,-3.746474 -11.47234,-0.803196 -20.9821,-1.643168 -21.13274,-1.866573 -0.1508,-0.223237 -1.75555,-8.843579 -3.5664,-19.155947 -1.81089,-10.312344 -3.69156,-19.771316 -4.1793,-21.019909 -0.67142,-1.71879 0.15499,-2.266489 3.40319,-2.254945 2.35948,0.0084 12.39849,0.688884 22.30887,1.512258 9.9104,0.823386 26.46527,2.851417 36.78861,4.50674 10.32334,1.655334 29.2558,5.58269 42.07215,8.727482 12.81635,3.144768 31.39834,8.487971 41.29334,11.873759 9.89496,3.385788 27.72879,10.523821 39.63067,15.862306 11.90189,5.338485 29.80817,14.303167 39.79176,19.921518 9.98355,5.618376 25.24387,14.947683 33.91177,20.731809 8.6679,5.78414 22.51993,15.79675 30.78229,22.25027 8.26237,6.45348 22.12396,18.13707 30.80356,25.96354 8.67959,7.8265 22.80686,21.96698 31.39394,31.42334 8.58707,9.45638 20.20814,23.21292 25.82457,30.57009 5.61646,7.3572 13.84879,18.80269 18.2941,25.43437 4.44528,6.63172 12.53772,19.92905 17.98318,29.54966 5.44545,9.6206 13.58311,25.5515 18.08367,35.40197 4.50056,9.85049 10.6569,24.43293 13.68072,32.40539 3.02386,7.97248 7.87692,22.57578 10.78462,32.45182 2.90768,9.87602 7.24044,27.37908 9.62838,38.89568 2.38797,11.51661 5.34886,28.48411 6.57996,37.70559 1.2311,9.22146 2.7104,24.52486 3.2876,34.00754 1.0492,17.24121 1.0492,17.24121 -2.5497,17.03165 -1.9793,-0.1152 -11.20054,-1.21578 -20.49154,-2.44555 z M 83.436585,474.68764 c 0,-1.87702 1.01184,-11.00408 2.248523,-20.28237 1.236719,-9.27833 3.303239,-22.51185 4.592336,-29.40789 1.289084,-6.89601 4.070166,-18.81595 6.180223,-26.48875 2.110056,-7.67276 6.782003,-22.39827 10.382143,-32.72331 3.60012,-10.325 9.524,-25.42079 13.16416,-33.54616 3.64022,-8.12537 10.4918,-21.61083 15.22582,-29.96768 4.73402,-8.35684 13.01878,-21.83215 18.4106,-29.94512 5.39182,-8.11294 14.26904,-20.38077 19.72716,-27.26179 5.4581,-6.88107 19.04588,-21.73864 30.19508,-33.01684 11.14918,-11.27821 27.36621,-26.12152 36.03782,-32.98517 8.6716,-6.86364 25.22646,-18.67347 36.78859,-26.24414 11.56213,-7.5707 28.17935,-17.46773 36.92711,-21.99346 15.53892,-8.03916 35.81224,-16.71825 55.4198,-23.72541 5.36812,-1.91839 17.77918,-5.86418 27.58012,-8.768388 9.80092,-2.904215 26.01795,-6.882931 36.03781,-8.841603 10.01986,-1.958672 23.48827,-4.019192 29.92979,-4.578901 11.71185,-1.017632 11.71185,-1.017632 10.93002,2.481487 -0.43003,1.924507 -2.51763,17.438615 -4.63908,34.475825 -2.1215,17.03721 -4.49159,32.47024 -5.26692,34.29568 -0.9303,2.19028 -2.68905,3.31891 -5.1719,3.31891 -2.06924,0 -11.71259,1.64903 -21.42966,3.66448 -9.71706,2.01546 -25.72582,6.32399 -35.57494,9.57452 -9.8492,3.25049 -18.02645,5.75013 -18.17173,5.55476 -0.1454,-0.19525 -4.51255,-7.65686 -9.70507,-16.58114 -5.1925,-8.92424 -12.07493,-20.04267 -15.29428,-24.70762 -3.2194,-4.66494 -6.03693,-8.48172 -6.26124,-8.48172 -0.22424,0 0.0866,4.48056 0.691,9.95682 0.60436,5.47624 2.50234,17.99597 4.21774,27.82164 1.71536,9.82569 3.11727,18.78681 3.11529,19.91363 -10e-4,1.1268 -3.88727,4.00039 -8.63405,6.38571 -4.74676,2.38532 -14.77633,8.08554 -22.28795,12.66712 -7.51159,4.58158 -18.99865,12.3262 -25.52679,17.21029 -6.5281,4.88409 -18.90918,15.08958 -27.5135,22.67889 -8.60432,7.58928 -22.32782,21.45745 -30.49672,30.81815 -8.16888,9.36068 -21.52408,26.80469 -29.67826,38.7644 -8.15418,11.95975 -18.85264,29.88202 -23.77446,39.82722 -4.9218,9.94524 -9.82132,20.96074 -10.88782,24.47891 -1.73308,5.71704 -2.34842,6.32407 -5.79184,5.71371 -2.11902,-0.37561 -13.8782,-2.46299 -26.13154,-4.63858 -12.25334,-2.17562 -23.7404,-3.7511 -25.52678,-3.5011 -3.35478,0.4695 -4.06598,-0.0739 33.54058,25.6279 6.60696,4.51543 12.01264,8.3633 12.01264,8.55078 0,0.1876 -1.33624,6.35524 -2.96938,13.70608 -1.63318,7.35082 -3.96324,19.86423 -5.17796,27.80753 -1.21474,7.9433 -2.75026,14.93359 -3.41234,15.53397 -0.66206,0.60035 -16.47556,3.15702 -35.1411,5.68149 -18.66558,2.52448 -35.051507,4.58997 -36.41322,4.58997 -1.586627,0 -2.475825,-1.22567 -2.475825,-3.41273 z m 819.380635,-1.74552 c -18.84578,-2.68421 -34.5968,-5.20627 -35.00228,-5.60459 -0.40547,-0.39833 -1.36332,-5.27534 -2.1286,-10.83783 -0.76526,-5.56249 -3.18354,-18.26322 -5.37393,-28.22386 -2.19037,-9.96063 -3.71951,-18.26073 -3.39807,-18.44468 0.32144,-0.18406 9.36865,-6.15164 20.10493,-13.26158 10.73625,-7.10991 21.5476,-14.63989 24.0252,-16.73327 4.50473,-3.80615 4.50473,-3.80615 -4.05777,-2.91924 -4.70933,0.48782 -17.542,2.51684 -28.51697,4.50897 -10.97501,1.99211 -20.36176,3.15167 -20.85951,2.57676 -0.49776,-0.57488 -2.47526,-5.02798 -4.39447,-9.89575 -1.9192,-4.86775 -6.15417,-14.16078 -9.41103,-20.65113 -3.25683,-6.4904 -9.35348,-17.44287 -13.5481,-24.33888 -4.19462,-6.89601 -11.97116,-18.51227 -17.2812,-25.81393 -5.31008,-7.30166 -13.23212,-17.59035 -17.60454,-22.86378 -4.37243,-5.27343 -16.96073,-18.24648 -27.974,-28.82903 -11.01329,-10.58252 -26.90282,-24.29967 -35.31013,-30.48253 -8.40729,-6.18287 -19.89432,-13.85605 -25.52676,-17.05147 -5.63244,-3.19545 -14.29507,-7.95303 -19.25027,-10.57245 -4.9552,-2.61943 -9.57736,-5.29899 -10.27148,-5.95462 -0.69408,-0.6556 0.43558,-11.05558 2.51043,-23.11104 2.07483,-12.05549 4.20446,-25.07204 4.73255,-28.92569 0.52809,-3.85368 0.64719,-7.00666 0.26472,-7.00666 -0.38251,0 -5.75848,7.7995 -11.94659,17.33222 -6.18814,9.53273 -13.05172,20.87298 -15.25243,25.20054 -3.09129,6.07887 -4.5786,7.65053 -6.53971,6.91061 -1.39612,-0.52671 -9.29553,-3.17288 -17.55418,-5.88037 -8.25868,-2.70746 -22.86778,-6.64694 -32.46469,-8.75446 -9.59691,-2.10749 -19.90145,-3.83182 -22.89902,-3.83182 -2.99756,0 -5.4501,-0.30905 -5.4501,-0.68681 0,-0.37777 -1.0149,-8.17726 -2.25533,-17.33222 -1.24041,-9.15497 -3.30117,-24.61082 -4.57941,-34.34637 -1.27827,-9.735552 -2.62498,-19.130914 -2.99271,-20.878575 -0.61707,-2.932799 -0.17748,-3.12671 5.70562,-2.517137 19.28108,1.997747 32.0352,4.014917 46.16595,7.30148 8.67159,2.016895 22.52361,5.686118 30.78229,8.153846 8.25865,2.467726 21.77284,6.900366 30.03152,9.850286 8.25865,2.94995 26.16493,10.82472 39.79175,17.4995 13.6268,6.67477 32.8845,17.37727 42.7949,23.78331 9.9104,6.40606 25.11385,17.2254 33.78544,24.04299 8.67162,6.81761 23.90388,20.36627 33.8495,30.10815 9.94566,9.74191 24.02293,24.68233 31.28287,33.20092 7.25991,8.51861 19.25848,24.4155 26.66349,35.32645 7.40502,10.91099 18.1257,29.16512 23.82374,40.56478 5.69806,11.39966 13.03754,27.39649 16.30996,35.54854 3.27242,8.15202 8.69618,23.95981 12.05278,35.12842 3.35663,11.16859 8.09528,30.38645 10.53044,42.70631 2.43512,12.3199 4.8575,27.04634 5.38304,32.72541 0.52554,5.67905 1.30596,12.15097 1.73426,14.38204 0.67352,3.50854 0.3062,4.0377 -2.71915,3.91754 -1.92382,-0.0763 -18.91713,-2.33508 -37.76292,-5.0193 z M 326.69184,453.44399 c -6.19402,-3.7556 -25.45172,-14.90946 -42.79493,-24.78637 -17.34318,-9.87689 -36.80309,-20.79302 -43.24422,-24.25806 -6.44114,-3.46501 -11.40972,-6.5962 -11.04124,-6.95815 0.36844,-0.36197 18.1391,3.07968 39.4903,7.64812 21.35122,4.56844 52.74653,10.98411 69.76736,14.25707 30.94698,5.95085 30.94698,5.95085 42.74076,19.65452 6.48656,7.53699 11.99911,14.30878 12.25007,15.04838 0.25093,0.73962 -2.40622,1.51067 -5.90483,1.71346 -3.49862,0.20262 -14.15308,1.32363 -23.67658,2.49076 -9.52348,1.16716 -19.34257,2.09883 -21.82017,2.07037 -2.66377,-0.0306 -9.10707,-2.84227 -15.76652,-6.8801 z m 328.09424,3.90291 c -11.56213,-1.47789 -21.20626,-2.72326 -21.43137,-2.76747 -0.22515,-0.0442 4.41787,-6.09195 10.31782,-13.43938 5.89989,-7.34745 12.16547,-14.23633 13.92347,-15.30863 1.75803,-1.0723 5.22352,-2.33296 7.70112,-2.80146 2.4776,-0.46851 32.85973,-6.53158 67.51586,-13.47348 34.65611,-6.94195 63.61493,-12.42398 64.3529,-12.18234 0.73798,0.2418 -15.45425,9.89208 -35.98276,21.44536 -20.5285,11.55329 -45.43306,25.62365 -55.34347,31.26748 -14.59435,8.31123 -19.16045,10.23158 -24.0252,10.10424 -3.30348,-0.0866 -15.46625,-1.36643 -27.02837,-2.84432 z M 393.39579,434.9288 c -8.32253,-9.95272 -22.5848,-27.70917 -31.6939,-39.45879 -9.10915,-11.74961 -31.30464,-41.27657 -49.32334,-65.61543 -18.01871,-24.33884 -35.34584,-48.17217 -38.50474,-52.9629 -3.15888,-4.7907 -5.74342,-9.26729 -5.74342,-9.94795 0,-0.68066 7.93958,4.49882 17.64352,11.51001 9.70392,7.01116 27.10344,19.74563 38.66556,28.29877 34.09172,25.2196 88.64306,66.04804 109.23962,81.75938 17.37958,13.25737 19.1443,15.03492 19.13638,19.2757 -0.006,2.56938 -0.6677,8.625 -1.47316,13.45695 -1.3538,8.12148 -2.21886,9.53217 -11.44806,18.66855 -8.684,8.59663 -10.88669,10.00451 -16.92116,10.81535 -3.81562,0.51267 -8.6268,1.23907 -10.69146,1.61419 -3.27802,0.59557 -5.67234,-1.61213 -18.88584,-17.41383 z m 213.33988,16.52115 c -10.51104,-1.16577 -10.51104,-1.16577 -21.25407,-12.68038 -10.74303,-11.51459 -10.74303,-11.51459 -11.76014,-22.17693 -0.55939,-5.86427 -0.55309,-11.39974 0.015,-12.30108 0.56706,-0.90133 12.27834,-10.42284 26.02508,-21.15894 13.74674,-10.7361 40.19755,-30.83535 58.77955,-44.66501 18.58199,-13.82968 46.62391,-34.38379 62.31536,-45.67584 15.69149,-11.29204 30.89494,-22.16483 33.78547,-24.16172 5.25551,-3.63076 5.25551,-3.63076 2.41111,0.7703 -1.56439,2.42061 -9.31003,13.36222 -17.21247,24.31472 -26.72771,37.04352 -57.68658,78.81374 -74.34362,100.30559 -9.11738,11.76378 -23.27616,29.68604 -31.46394,39.82722 -8.18774,10.14119 -15.31398,18.51263 -15.83604,18.60318 -0.52206,0.0904 -5.67918,-0.35994 -11.46023,-1.00111 z m -36.78861,-67.81623 c 0,-3.27894 -1.06287,-14.5258 -2.36194,-24.99299 -2.36194,-19.03135 -2.36194,-19.03135 19.25719,-55.62299 11.89056,-20.12544 27.31222,-46.34028 34.27042,-58.25523 6.95823,-11.91493 12.85134,-21.11625 13.09582,-20.44737 0.24464,0.66891 -2.60084,14.06833 -6.32302,29.77649 -15.69277,66.22613 -18.77482,79.50365 -21.94614,94.54434 -3.33802,15.83123 -3.33802,15.83123 -18.28538,28.39534 -8.22108,6.91027 -15.56827,12.5641 -16.32717,12.5641 -0.75887,0 -1.37978,-2.68274 -1.37978,-5.96169 z m -131.67417,-6.76209 c -11.78436,-9.44797 -14.14939,-12.09629 -16.18884,-18.12818 -1.31362,-3.88512 -8.42686,-35.50501 -15.80724,-70.2664 -7.3804,-34.76142 -13.14993,-63.46673 -12.82124,-63.78965 0.3287,-0.3229 2.08754,2.29833 3.90853,5.82495 3.51303,6.8035 23.64767,40.66005 48.14235,80.95176 11.10662,18.26948 14.82868,25.66993 14.83782,29.50162 0.006,2.81313 -1.1415,14.57372 -2.5516,26.13468 -1.49768,12.27911 -3.21989,20.98159 -4.14155,20.92775 -0.86776,-0.0506 -7.78794,-5.07112 -15.37823,-11.15653 z"
     id="path1" />
</svg>
